<svg xmlns="http://www.w3.org/2000/svg" viewBox="0 0 491 218" width="491" height="218">
	<style>
		tspan { white-space:pre }
		.shp0 { fill: #ffffff } 
	</style>
	<g id="Layer">
		<path id="Layer" class="shp0" d="M262.3,2.3c1.3,3.4 -3.1,17.3 -13.8,43.9c-0.7,1.7 0.9,1.8 25.1,1.8c45.7,0.1 63.3,3.2 64.2,11.4c0.3,2.2 -0.5,3.6 -3.6,6.5c-4.3,4.1 -16.2,9.6 -23,10.7c-7.3,1.2 -4.7,-1.3 4.4,-4.2c8.3,-2.6 15.5,-6.9 17.8,-10.7c1.7,-2.7 -0.4,-5 -7,-7.1c-5.1,-1.7 -9.6,-2 -33.9,-2.3c-15.4,-0.2 -32.2,0 -37.4,0.4l-9.3,0.8l-9,24c-23.8,64.2 -37.8,111.4 -37.8,127.8c0,10.1 3.1,11.2 13,4.5c11.8,-7.9 32.3,-30.1 56.9,-61.7c8,-10.2 11,-14.8 10.5,-16c-0.4,-0.9 -0.9,-4.6 -1.2,-8.3c-0.5,-8.3 1.9,-14.1 8.2,-19.3c7.5,-6.1 12.9,-7.9 23.6,-8c8.3,0 10.1,0.3 14,2.5c11.4,6.4 11.8,18 1,33.4c-2.9,4.2 -3.5,5.6 -2.3,5.2c1,-0.2 4.5,-1.2 7.8,-2.1c5.9,-1.6 6.1,-1.7 6.1,-5c0,-4.1 2.8,-7.5 6.1,-7.5c2.2,0 2.3,0.3 1.7,3.5c-0.6,3.3 -0.4,3.5 3.7,5.4c2.4,1.1 9.8,3.6 16.4,5.6c6.6,2.1 14.5,5 17.7,6.6c5.5,2.8 5.8,2.8 9.9,1.4c5.5,-2 15.7,-7.2 18.8,-9.7c1.6,-1.2 3,-3.8 3.8,-6.8c2.8,-11 5.6,-14.3 9.1,-10.8c1.9,1.9 1.4,4.2 -2.3,11.6c-2,3.9 -3.9,8.6 -4.2,10.6c-0.5,3.1 -0.3,3.6 1.4,3.6c2.3,0 10.7,-7 12.5,-10.4c0.6,-1.1 2.3,-6.9 3.8,-12.7l2.7,-10.6l-7.7,0.5c-9.2,0.5 -12.3,-0.7 -11.8,-4.5c0.5,-4.1 3,-5 6.7,-2.4c4.2,3 8,4 11.3,2.9c2.4,-0.9 3.2,-2.7 8.6,-19.1c8.3,-25.3 18,-52.3 20.8,-57.8c2.9,-5.9 7.1,-10.9 9.1,-10.9c2.7,0 1,7.6 -4.2,19.6c-11.1,25.5 -18.1,43.1 -24.5,62.4c-7,21 -11.4,36.4 -10.7,38.3c0.6,1.8 6.4,-8.5 8.1,-14.3c1.9,-6.7 5,-12 7.1,-12c3.1,0 2.7,3.3 -1.4,11.2c-2.3,4.4 -4.1,9 -3.9,10.1c0.7,4.9 11.6,4.3 17.8,-1c3.2,-2.7 5.2,-2.4 3.4,0.5c-1.5,2.3 -6.7,5.3 -11.2,6.3c-4.4,1 -11,-0.5 -11.9,-2.7c-0.4,-1 -1.4,-0.1 -3.3,2.9c-4.2,6.6 -7.3,7.2 -8.5,1.6l-0.7,-3l-4.3,4c-7.5,6.9 -13.5,6.5 -13.5,-0.9v-3.9l-3.4,2.3c-1.9,1.3 -6.5,3.6 -10.3,5.1c-3.7,1.6 -7.1,3.1 -7.6,3.5c-0.4,0.3 0,2 0.8,3.8c1.4,2.7 1.4,3.5 0.1,6.6c-2.7,6.4 -15.7,13.5 -32.8,17.7c-26.6,6.6 -40.4,2.6 -29.6,-8.7c5.2,-5.5 18.9,-10.9 43.8,-17.4c5.8,-1.6 4.9,-2 -14.1,-7c-8.4,-2.2 -16.8,-4.9 -18.5,-5.9c-3.2,-1.9 -3.3,-1.9 -13.9,0.9c-8,2.2 -11.5,3.7 -14.2,6.1c-11.9,10.4 -27.2,10.4 -32.4,0.1c-1,-1.8 -2.1,-3.2 -2.5,-3.1c-0.5,0 -6,6.7 -12.3,14.8c-34.8,44.8 -58.5,65.7 -67.7,59.6c-1.3,-0.8 -2.7,-2.7 -3,-4.1c-1.8,-7.2 2.7,-32.5 11,-61.1l4.3,-15.1l-5.7,3.9c-15.6,10.6 -25.1,8.7 -28.6,-5.6c-1.1,-4.8 -1.3,-4.8 -6,-0.5c-2.4,2.2 -7.1,5.8 -10.5,8c-13.1,8.5 -22.3,8.8 -25.8,1l-1.8,-3.9l-3.3,3.4c-4.5,4.6 -8.3,6.1 -11.7,4.6c-2.5,-1.2 -2.6,-1.3 -2,-8.9c0.3,-4.2 0.9,-8.6 1.3,-9.7c0.4,-1.1 -4.2,2.7 -10.2,8.5c-15,14.6 -20.5,16.4 -21.2,7.2l-0.3,-4l-8.4,3.9c-4.5,2.1 -8.8,3.9 -9.3,3.9c-2,0 -2.2,1.7 -0.6,4.8c1.3,2.7 1.3,3.5 0,6.6c-2.7,6.4 -15.7,13.5 -32.8,17.7c-26.6,6.6 -40.4,2.6 -29.6,-8.7c5.2,-5.5 18.9,-10.9 43.8,-17.4c5.8,-1.6 4.8,-2.1 -13.9,-7c-17.4,-4.5 -20.5,-5.9 -22.6,-10.1c-2.5,-4.8 0.4,-10.9 5.2,-10.9c2.2,0 2.3,0.3 1.7,3.5c-0.6,3.3 -0.4,3.5 3.7,5.4c2.4,1.1 9.8,3.6 16.4,5.6c6.6,2.1 14.6,5 17.7,6.6l5.8,2.9l6.7,-2.6c9.3,-3.8 15.6,-7.6 17,-10.5c0.6,-1.3 1.9,-4.3 2.9,-6.7c1.9,-4.6 4.3,-6.6 6.7,-5.6c2.8,1 2.5,4.4 -0.9,12.3c-1.9,4.4 -3.4,8.7 -3.4,9.6c0,1.6 0.2,1.5 2.9,-0.2c1.6,-1 8.6,-7.3 15.6,-14.1c7,-6.7 13.3,-12.2 13.9,-12.2c1.7,0 3.6,2.1 3.6,4.1c0,1 -1.6,4.9 -3.5,8.7c-2,3.9 -3.9,8.6 -4.2,10.6c-0.5,3.1 -0.3,3.6 1.4,3.6c3.2,0 11,-7.6 14.5,-14.2c3.9,-7.3 8.5,-10.8 14.5,-10.8c4.7,0 7.3,1.9 7.3,5.5c0,3.2 -1.1,3.7 -4.8,2.3c-4,-1.6 -7.2,0.5 -10.2,6.7c-1.9,3.9 -2.1,5.1 -1.1,7.2c1,2.3 1.6,2.5 5.2,2c4,-0.5 12.3,-5.1 23.8,-13.2c7.1,-5 9.1,-4.8 9.1,0.9c0,1.7 0.9,5 1.9,7.3c3.1,6.8 7.5,7.9 15.2,4c6,-3 16.8,-10.9 16.8,-12.4c0.1,-0.6 5.7,-17.9 12.6,-38.4c6.8,-20.5 12.3,-37.4 12.2,-37.4c-0.1,-0.1 -16,1.2 -35.3,2.8c-30.7,2.6 -35.4,2.8 -37.9,1.6c-6.1,-3 -3.7,-5.3 7.1,-6.8c3.8,-0.6 20.6,-1.5 37.4,-2.2c19.6,-0.7 30.7,-1.5 31.2,-2.2c0.4,-0.6 2.6,-6.5 4.9,-13.2c5.5,-16.1 9.5,-25.3 12.5,-29.2c2.7,-3.6 3.9,-4.1 4.7,-2zM282.6,116.2c-1.6,3.7 -2.2,11.8 -0.9,11.8c0.3,0 2.3,-1.8 4.3,-4c2.5,-2.7 4.5,-4 6.3,-4c3.5,0 3.4,1.1 -0.8,8.7c-1.9,3.5 -3.5,6.8 -3.5,7.2c0,1.7 9.3,4.1 15.5,4.1c6.2,0 6.2,0 11.3,-5.3c9.1,-9.4 13.1,-16.2 13.2,-22.6c0,-4.2 -5,-9.4 -10.5,-11c-13.7,-3.8 -30,3.3 -34.9,15.1zM52,153c-1.4,0.4 -9.7,3.1 -18.5,5.9c-16.1,5.1 -25.6,9.7 -28.3,13.8c-1.3,2.1 -1.2,2.3 1.4,3.3c7.9,3 39.7,-6.1 51.2,-14.7c3.7,-2.8 4.3,-6.6 1.3,-8.3c-2.3,-1.2 -3.6,-1.2 -7.1,0zM378,153c-1.4,0.4 -9.7,3.1 -18.5,5.9c-16.1,5.1 -25.6,9.7 -28.3,13.8c-1.3,2.1 -1.2,2.3 1.4,3.3c7.9,3 39.7,-6.1 51.2,-14.7c3.7,-2.8 4.3,-6.6 1.3,-8.3c-2.3,-1.2 -3.6,-1.2 -7.1,0z" />
	</g>
</svg>