<?xml version="1.0" standalone="no"?>
<!DOCTYPE svg PUBLIC "-//W3C//DTD SVG 20010904//EN"
 "http://www.w3.org/TR/2001/REC-SVG-20010904/DTD/svg10.dtd">
<svg version="1.0" xmlns="http://www.w3.org/2000/svg"
 width="491.000000pt" height="218.000000pt" viewBox="0 0 491.000000 218.000000"
 preserveAspectRatio="xMidYMid meet">
<metadata>
Created by potrace 1.15, written by Peter Selinger 2001-2017
</metadata>
<g transform="translate(0.000000,218.000000) scale(0.100000,-0.100000)"
fill="#000000" stroke="none">
<path d="M2576 2137 c-30 -39 -70 -131 -125 -292 -23 -67 -45 -126 -49 -132
-5 -7 -116 -15 -312 -22 -168 -7 -336 -16 -374 -22 -108 -15 -132 -38 -71 -68
25 -12 72 -10 379 16 193 16 352 29 353 28 1 0 -54 -169 -122 -374 -69 -205
-125 -378 -126 -384 0 -15 -108 -94 -168 -124 -77 -39 -121 -28 -152 40 -10
23 -19 56 -19 73 0 57 -20 59 -91 9 -115 -81 -198 -127 -238 -132 -36 -5 -42
-3 -52 20 -10 21 -8 33 11 72 30 62 62 83 102 67 37 -14 48 -9 48 23 0 36 -26
55 -73 55 -60 0 -106 -35 -145 -108 -35 -66 -113 -142 -145 -142 -17 0 -19 5
-14 36 3 20 22 67 42 106 19 38 35 77 35 87 0 20 -19 41 -36 41 -6 0 -69 -55
-139 -122 -70 -68 -140 -131 -156 -141 -27 -17 -29 -18 -29 -2 0 9 15 52 34
96 34 79 37 113 9 123 -24 10 -48 -10 -67 -56 -10 -24 -23 -54 -29 -67 -14
-29 -77 -67 -170 -105 l-67 -26 -58 29 c-31 16 -111 45 -177 66 -66 20 -140
45 -164 56 -41 19 -43 21 -37 54 6 32 5 35 -17 35 -48 0 -77 -61 -52 -109 21
-42 52 -56 226 -101 187 -49 197 -54 139 -70 -249 -65 -386 -119 -438 -174
-108 -113 30 -153 296 -87 171 42 301 113 328 177 13 31 13 39 0 66 -16 31
-14 48 6 48 5 0 48 18 93 39 l84 39 3 -40 c7 -92 62 -74 212 72 60 58 106 96
102 85 -4 -11 -10 -55 -13 -97 -6 -76 -5 -77 20 -89 34 -15 72 0 117 46 l33
34 18 -39 c35 -78 127 -75 258 10 34 22 81 58 105 80 47 43 49 43 60 -5 35
-143 130 -162 286 -56 l57 39 -43 -151 c-83 -286 -128 -539 -110 -611 3 -14
17 -33 30 -41 92 -61 329 148 677 596 63 81 118 148 123 148 4 1 15 -13 25
-31 52 -103 205 -103 324 1 27 24 62 39 142 61 106 28 107 28 139 9 17 -10
101 -37 185 -59 190 -50 199 -54 141 -70 -249 -65 -386 -119 -438 -174 -108
-113 30 -153 296 -87 171 42 301 113 328 177 13 31 13 39 -1 66 -8 18 -12 35
-8 38 5 4 39 19 76 35 38 15 84 38 103 51 l34 23 0 -39 c0 -74 60 -78 135 -9
l43 40 7 -30 c12 -56 43 -50 85 16 19 30 29 39 33 29 9 -22 75 -37 119 -27 45
10 97 40 112 63 18 29 -2 32 -34 5 -62 -53 -171 -59 -178 -10 -2 11 16 57 39
101 41 79 45 112 14 112 -21 0 -52 -53 -71 -120 -17 -58 -75 -161 -81 -143 -7
19 37 173 107 383 64 193 134 369 245 624 52 120 69 196 42 196 -20 0 -62 -50
-91 -109 -28 -55 -125 -325 -208 -578 -54 -164 -62 -182 -86 -191 -33 -11 -71
-1 -113 29 -37 26 -62 17 -67 -24 -5 -38 26 -50 118 -45 l77 5 -27 -106 c-15
-58 -32 -116 -38 -127 -18 -34 -102 -104 -125 -104 -17 0 -19 5 -14 36 3 20
22 67 42 106 37 74 42 97 23 116 -35 35 -63 2 -91 -108 -8 -30 -22 -56 -38
-68 -31 -25 -133 -77 -188 -97 -41 -14 -44 -14 -99 14 -32 16 -111 45 -177 66
-66 20 -140 45 -164 56 -41 19 -43 21 -37 54 6 32 5 35 -17 35 -33 0 -61 -34
-61 -75 0 -33 -2 -34 -61 -50 -33 -9 -68 -19 -78 -21 -12 -4 -6 10 23 52 108
154 104 270 -10 334 -39 22 -57 25 -140 25 -107 -1 -161 -19 -236 -80 -63 -52
-87 -110 -82 -193 3 -37 8 -74 12 -83 5 -12 -25 -58 -105 -160 -246 -316 -451
-538 -569 -617 -99 -67 -130 -56 -130 45 0 164 140 636 378 1278 l90 240 93 8
c52 4 220 6 374 4 243 -3 288 -6 339 -23 66 -21 87 -44 70 -71 -23 -38 -95
-81 -178 -107 -91 -29 -117 -54 -44 -42 68 11 187 66 230 107 31 29 39 43 36
65 -9 82 -185 113 -642 114 -242 0 -258 1 -251 18 107 266 151 405 138 439 -8
21 -20 16 -47 -20z m599 -968 c55 -16 105 -68 105 -110 -1 -64 -41 -132 -132
-226 -51 -53 -51 -53 -113 -53 -62 0 -155 24 -155 41 0 4 16 37 35 72 42 76
43 87 8 87 -18 0 -38 -13 -63 -40 -20 -22 -40 -40 -43 -40 -13 0 -7 81 9 118
49 118 212 189 349 151z m-2584 -519 c30 -17 24 -55 -13 -83 -115 -86 -433
-177 -512 -147 -26 10 -27 12 -14 33 27 41 122 87 283 138 88 28 171 55 185
59 35 12 48 12 71 0z m3260 0 c30 -17 24 -55 -13 -83 -115 -86 -433 -177 -512
-147 -26 10 -27 12 -14 33 27 41 122 87 283 138 88 28 171 55 185 59 35 12 48
12 71 0z"/>
</g>
</svg>
