<?xml version="1.0" encoding="iso-8859-1"?>
<!-- Generator: Adobe Illustrator 19.0.0, SVG Export Plug-In . SVG Version: 6.00 Build 0)  -->
<svg version="1.1" id="Layer_1" xmlns="http://www.w3.org/2000/svg" xmlns:xlink="http://www.w3.org/1999/xlink" x="0px" y="0px"
	 viewBox="0 0 512 512" style="enable-background:new 0 0 512 512;" xml:space="preserve">
<path style="fill:#FDC794;" d="M459.09,220.69c0-19.421-15.89-35.31-35.31-35.31c-19.421,0-35.31,15.89-35.31,35.31v-44.138
	c0-19.421-15.89-35.31-35.31-35.31c-19.421,0-35.31,15.89-35.31,35.31l0,0l0,0V35.31c0-19.421-15.89-35.31-35.31-35.31l0,0
	c-19.421,0-35.31,15.89-35.31,35.31v141.241v-17.655c0-19.421-15.89-35.31-35.31-35.31l0,0c-19.421,0-35.31,15.89-35.31,35.31
	v105.931l-15.89-23.834c-17.655-30.897-60.028-45.021-88.276-34.428c-4.414,0.883-7.062,3.531-10.593,5.297
	c-10.593,7.062-8.828,15.007-8.828,17.655s50.317,53.848,79.448,105.931c0,0,25.6,42.372,52.966,70.621v26.483
	c0,44.138,35.31,79.448,79.448,79.448h88.276c34.428,0,69.738-29.131,77.683-62.676c1.766-7.945,5.297-19.421,10.593-25.6
	c7.945-8.828,17.655-30.897,17.655-61.793V220.69z"/>
<g>
	<path style="fill:#F9A671;" d="M185.434,291.31c-3.531,0-6.179-1.766-7.945-5.297l-8.828-17.655c-1.766-4.414,0-9.71,3.531-11.476
		c4.414-1.766,9.71,0,11.476,3.531l8.828,17.655c1.766,4.414,0,9.71-3.531,11.476C188.083,291.31,187.2,291.31,185.434,291.31z"/>
	<path style="fill:#F9A671;" d="M247.228,282.483c-5.297,0-8.828-3.531-8.828-8.828v-97.103c0-5.297,3.531-8.828,8.828-8.828
		s8.828,3.531,8.828,8.828v97.103C256.055,278.952,252.524,282.483,247.228,282.483z"/>
	<path style="fill:#F9A671;" d="M317.848,273.655c-5.297,0-8.828-3.531-8.828-8.828v-88.276c0-5.297,3.531-8.828,8.828-8.828
		c5.297,0,8.828,3.531,8.828,8.828v88.276C326.676,270.124,323.145,273.655,317.848,273.655z"/>
	<path style="fill:#F9A671;" d="M388.469,282.483c-5.297,0-8.828-3.531-8.828-8.828V220.69c0-5.297,3.531-8.828,8.828-8.828
		s8.828,3.531,8.828,8.828v52.966C397.297,278.952,393.766,282.483,388.469,282.483z"/>
	<path style="fill:#F9A671;" d="M406.124,450.207c-3.531,0-7.062-2.648-8.828-6.179c-0.883-4.414,1.766-9.71,6.179-10.593
		c14.124-3.531,15.007-4.414,17.655-8.828c0.883-1.766,1.766-3.531,3.531-5.297c2.648-3.531,8.828-4.414,12.359-1.766
		c3.531,2.648,4.414,8.828,1.766,12.359c-0.883,1.766-2.648,3.531-3.531,4.414c-6.179,8.828-9.71,11.476-28.248,16.772
		C407.89,450.207,407.007,450.207,406.124,450.207z"/>
	<path style="fill:#F9A671;" d="M229.572,441.379c-1.766,0-3.531-0.883-5.297-1.766c-5.297-4.414-9.71-7.062-15.007-11.476
		c-7.062-4.414-13.241-9.71-20.303-15.89c-3.531-3.531-3.531-8.828-0.883-12.359c3.531-3.531,8.828-3.531,12.359-0.883
		c6.179,5.297,12.359,9.71,18.538,14.124c5.297,3.531,10.593,7.062,15.89,12.359c3.531,3.531,4.414,8.828,0.883,12.359
		C234.869,440.497,232.221,441.379,229.572,441.379z"/>
</g>
<g>
</g>
<g>
</g>
<g>
</g>
<g>
</g>
<g>
</g>
<g>
</g>
<g>
</g>
<g>
</g>
<g>
</g>
<g>
</g>
<g>
</g>
<g>
</g>
<g>
</g>
<g>
</g>
<g>
</g>
</svg>
