<svg xmlns="http://www.w3.org/2000/svg" width="138" height="45" viewBox="0 0 138 45"><title>COBI Bike</title><g fill="none" fill-rule="evenodd"><path d="M136.118.815a1.08 1.08 0 0 0-1.08 1.08v40.446a1.08 1.08 0 1 0 2.161 0V1.895a1.08 1.08 0 0 0-1.081-1.08zm-19.657 21.018c3.461-1.905 5.811-5.585 5.811-9.806 0-6.168-5.021-11.187-11.19-11.187H94.413a1.08 1.08 0 0 0 0 2.161h16.669c4.978 0 9.029 4.049 9.029 9.026 0 4.812-3.788 8.758-8.538 9.013h-12.99a1.08 1.08 0 0 0 0 2.159h13.744c4.978 0 9.03 4.051 9.031 9.028 0 4.977-4.051 9.025-9.029 9.025h-17.92a1.08 1.08 0 1 0 0 2.161h17.92c6.17 0 11.191-5.018 11.191-11.187-.002-4.708-2.928-8.747-7.059-10.393z" fill="HSL(235, 13%, 18%)"></path><path d="M64.996.129C54.412-.055 45.172 7.326 43.033 17.688a1.084 1.084 0 0 0 2.123.437c1.928-9.34 10.253-15.997 19.803-15.831a19.747 19.747 0 0 1 13.946 6.064 19.748 19.748 0 0 1 5.574 14.151 19.74 19.74 0 0 1-6.064 13.947 19.725 19.725 0 0 1-14.15 5.574 19.859 19.859 0 0 1-9.639-2.69 1.087 1.087 0 0 0-1.483.393 1.081 1.081 0 0 0 .391 1.48 22.031 22.031 0 0 0 11.087 2.986 21.888 21.888 0 0 0 15.298-6.185c4.234-4.09 6.625-9.584 6.726-15.47a21.888 21.888 0 0 0-6.182-15.693A21.891 21.891 0 0 0 64.996.129z" fill="#2AC2E1"></path><path d="M41.897 25.172a1.076 1.076 0 0 0-1.272.839C38.771 35 30.76 41.411 21.569 41.246A18.996 18.996 0 0 1 8.146 35.41a18.993 18.993 0 0 1-5.363-13.617A19.002 19.002 0 0 1 8.619 8.369a19.006 19.006 0 0 1 13.618-5.364c2.585.045 5.085.598 7.427 1.641a1.08 1.08 0 1 0 .879-1.971A21.113 21.113 0 0 0 22.275.847 21.137 21.137 0 0 0 7.121 6.818 21.131 21.131 0 0 0 .627 21.754 21.134 21.134 0 0 0 6.596 36.91a21.14 21.14 0 0 0 15.311 6.496c10.066-.001 18.794-7.08 20.832-16.959a1.082 1.082 0 0 0-.842-1.275z" fill="HSL(235, 13%, 18%)"></path></g></svg>