<svg aria-labelledby="khan-academy-logo" xmlns="http://www.w3.org/2000/svg" viewBox="0 0 175.056 28.005"><defs><style>.cls-1{fill:#14bf96;}.cls-2{fill:#fff;}</style></defs><title id="khan-academy-logo">Khan Academy</title><path fill="#0C2B64" d="M33 6.5a.539.539 0 0 1 .55-.5h2a.55.55 0 0 1 .55.55v6.2l5.79-6.52a.528.528 0 0 1 .45-.23h2.3a.48.48 0 0 1 .36.82l-6 6.75 6.43 7.69a.51.51 0 0 1-.112.712.516.516 0 0 1-.3.1h-2.5a.557.557 0 0 1-.42-.16l-6-7.4v7a.561.561 0 0 1-.55.56h-2a.55.55 0 0 1-.55-.55v-15.022zM47.12 6.453a.539.539 0 0 1 .5-.5h1.86a.52.52 0 0 1 .51.5v5.63a4.063 4.063 0 0 1 2.7-.9c3.38 0 4.3 2.34 4.3 5v5.317a.531.531 0 0 1-.51.51h-1.86a.511.511 0 0 1-.5-.51v-5.34c0-1.47-.67-2.36-1.93-2.36a2.179 2.179 0 0 0-2.2 1.86v5.85c0 .3-.14.51-.56.51h-1.81a.52.52 0 0 1-.5-.51zM62.82 15.313a7.654 7.654 0 0 1 2 .3c0-1.35-.34-2-1.47-2a13.432 13.432 0 0 0-3 .39c-.35.12-.55-.13-.6-.45l-.23-1.2a.48.48 0 0 1 .276-.621.471.471 0 0 1 .064-.019 13.436 13.436 0 0 1 3.63-.53c3.31 0 4 1.72 4 4.62v5.71a.51.51 0 0 1-.51.51h-.78c-.18 0-.32-.07-.46-.37l-.3-.71a4.665 4.665 0 0 1-3.33 1.33 3.381 3.381 0 0 1-3.583-3.164 3.294 3.294 0 0 1 0-.466c.063-1.88 1.603-3.33 4.293-3.33zm.07 4.82a2.272 2.272 0 0 0 1.9-1.133v-1.55a4.2 4.2 0 0 0-1.56-.32c-1.22 0-1.88.57-1.88 1.51a1.405 1.405 0 0 0 1.54 1.49zM69.93 11.923a.51.51 0 0 1 .51-.51h.9a.419.419 0 0 1 .44.32l.39 1a4.257 4.257 0 0 1 3.42-1.54c3.37 0 4.24 2.27 4.24 4.84v5.49a.521.521 0 0 1-.49.48h-1.9a.51.51 0 0 1-.51-.51v-5.493c0-1.37-.55-2.22-1.83-2.22a2.339 2.339 0 0 0-2.3 1.65v6.06c0 .39-.16.51-.66.51h-1.7a.531.531 0 0 1-.51-.51zM85.23 21.423l7.11-15.423a.4.4 0 0 1 .39-.25h.23a.389.389 0 0 1 .38.25l7.07 15.45a.41.41 0 0 1-.172.553.4.4 0 0 1-.218.047h-2a.662.662 0 0 1-.67-.46l-1.12-2.48h-6.82l-1.13 2.48a.69.69 0 0 1-.66.46h-2a.4.4 0 0 1-.39-.63zm9.91-4.89l-2.29-5.05h-.07l-2.25 5.05zM106.34 11.183a5.236 5.236 0 0 1 4 1.82c.23.23.12.53-.11.76l-1 1.06c-.23.25-.48.13-.69-.07a2.838 2.838 0 0 0-2.11-.92 2.78 2.78 0 0 0-2.8 2.756v.154a2.77 2.77 0 0 0 2.595 2.934l.185.006a2.814 2.814 0 0 0 2.25-1.17.5.5 0 0 1 .66-.07l1 .87c.25.23.37.49.18.76a4.751 4.751 0 0 1-4.2 2.23 5.55 5.55 0 1 1-.471-11.09h.471zM116.17 15.313a7.782 7.782 0 0 1 2 .3c0-1.35-.35-2-1.47-2a13.49 13.49 0 0 0-3 .39c-.34.12-.55-.13-.59-.45l-.23-1.2a.48.48 0 0 1 .276-.621.471.471 0 0 1 .064-.019 13.436 13.436 0 0 1 3.63-.53c3.3 0 4 1.72 4 4.62v5.71a.511.511 0 0 1-.5.51h-.78c-.19 0-.32-.07-.46-.37l-.3-.71a4.684 4.684 0 0 1-3.33 1.33 3.381 3.381 0 0 1-3.583-3.164 3.294 3.294 0 0 1 0-.466c.053-1.88 1.593-3.33 4.273-3.33zm.07 4.82a2.292 2.292 0 0 0 1.91-1.133v-1.55a4.2 4.2 0 0 0-1.56-.32c-1.22 0-1.88.57-1.88 1.51a1.391 1.391 0 0 0 1.278 1.493 1.515 1.515 0 0 0 .252 0zM127.96 11.183a7.64 7.64 0 0 1 2.55.44v-5.17a.539.539 0 0 1 .5-.5h1.86a.52.52 0 0 1 .51.5v15.06a.51.51 0 0 1-.51.51h-.85c-.25 0-.41-.21-.5-.51l-.28-.83a4.552 4.552 0 0 1-3.46 1.59c-2.9 0-5.08-2.34-5.08-5.56a5.211 5.211 0 0 1 4.88-5.521l.38-.009zm2.55 3.22a4.174 4.174 0 0 0-2.21-.6 2.679 2.679 0 0 0-2.65 2.709l.01.2c0 1.5.85 2.94 2.51 2.94a2.432 2.432 0 0 0 2.34-1.47zM140.56 11.183a4.75 4.75 0 0 1 4.871 4.625v.285a3.208 3.208 0 0 1-.05.69.53.53 0 0 1-.5.48h-6.8a2.551 2.551 0 0 0 2.637 2.46 3.5 3.5 0 0 0 2.27-.78c.26-.21.53-.23.69 0l.9 1.19a.451.451 0 0 1-.05.69 6 6 0 0 1-3.95 1.45 5.37 5.37 0 0 1-5.373-5.367v-.193a5.37 5.37 0 0 1 5.208-5.528l.147-.002zm2 4.2a1.939 1.939 0 0 0-2-1.83 2.109 2.109 0 0 0-2.25 1.83zM147.13 11.923a.509.509 0 0 1 .5-.51h.83a.4.4 0 0 1 .43.3l.39 1a4 4 0 0 1 3.24-1.54 3.61 3.61 0 0 1 3.17 1.61 4.526 4.526 0 0 1 3.42-1.61c3.39 0 4.2 2.16 4.2 4.91v5.417a.52.52 0 0 1-.53.51h-1.84a.511.511 0 0 1-.5-.51v-5.5c0-1.37-.51-2.22-1.84-2.22a2 2 0 0 0-2 1.1v6.6a.52.52 0 0 1-.5.51h-1.76a.5.5 0 0 1-.51-.49v-5.5c0-1.37-.39-2.22-1.74-2.22a2.1 2.1 0 0 0-2 1.65v6.06a.52.52 0 0 1-.5.51h-1.86a.52.52 0 0 1-.5-.51zM164.41 12.1a.47.47 0 0 1 .192-.637.462.462 0 0 1 .268-.053h2.2a.419.419 0 0 1 .44.3l1.9 6.33h.05l2.41-6.33c.16-.28.34-.3.67-.3h2a.47.47 0 0 1 .514.421.475.475 0 0 1-.054.269l-6.25 15.06a.532.532 0 0 1-.46.32h-2.2a.481.481 0 0 1-.518-.439.473.473 0 0 1 .058-.271l2.13-5.37z"/><path class="cls-1" d="M1.65 5.8a3.558 3.558 0 0 0-1.65 2.8v10.8a3.562 3.562 0 0 0 1.65 2.8l9.69 5.42a3.75 3.75 0 0 0 3.3 0l9.7-5.42a3.562 3.562 0 0 0 1.65-2.8v-10.8a3.558 3.558 0 0 0-1.65-2.8l-9.69-5.417a3.743 3.743 0 0 0-3.3 0z"/><path class="cls-2" d="M22.95 11.323c-5.38 0-9.4 4.46-9.4 9.93v.23h-1.08v-.23c0-5.47-4-9.91-9.42-9.93v1a9.91 9.91 0 0 0 6.4 9.32 10.493 10.493 0 0 0 3.59.64 10.663 10.663 0 0 0 3.62-.64 9.921 9.921 0 0 0 6.39-9.32c-.05-.323-.07-.66-.1-1z"/><circle class="cls-2" cx="13" cy="8.743" r="3"/></svg>