<svg width="200" height="41.9354838" xmlns="http://www.w3.org/2000/svg" xmlns:xlink="http://www.w3.org/1999/xlink" viewBox="0 0 124 26" enable-background="new 0 0 124 26"><g fill="#27AAE1"><path d="M35.4 7.4c0-.2.2-.4.4-.4h4.4c2.4 0 4.5 2 4.5 4.4 0 2.5-2 4.5-4.4 4.5h-3.3v4.7c0 .2-.2.4-.4.4h-.8c-.2 0-.4-.2-.4-.4v-13.2zm4.6 7c1.6 0 3-1.3 3-3 0-1.6-1.4-2.8-3-2.8h-3.2v5.9h3.2zM47.2 7.4c0-.2.2-.4.4-.4h5.2c2.4 0 4.3 1.9 4.3 4.2 0 1.8-1.2 3.4-2.9 4.1l2.7 5.1c.1.3 0 .6-.3.6h-1c-.2 0-.3-.1-.3-.2l-2.6-5.3h-3.8v5.1c0 .2-.2.4-.4.4h-.8c-.2 0-.4-.2-.4-.4v-13.2zm5.5 6.8c1.5 0 2.9-1.3 2.9-2.9 0-1.5-1.3-2.8-2.9-2.8h-3.9v5.7h3.9zM66.5 6.8c4 0 7.2 3.2 7.2 7.2s-3.2 7.2-7.2 7.2-7.2-3.2-7.2-7.2c.1-4 3.3-7.2 7.2-7.2zm0 13c3.2 0 5.8-2.6 5.8-5.8 0-3.2-2.6-5.8-5.8-5.8s-5.8 2.6-5.8 5.8c.1 3.2 2.7 5.8 5.8 5.8zM74.8 7.6c-.1-.3 0-.5.3-.5h.8c.2 0 .3.1.3.2l5 11.2h.1l5-11.2c0-.1.2-.2.3-.2h.8c.3 0 .5.3.3.5l-6 13.4c-.1.1-.2.2-.3.2h-.2c-.1 0-.3-.1-.3-.2l-6.1-13.4zM87.2 20.5l6.1-13.4c.1-.1.2-.2.3-.2h.2c.2 0 .3.1.3.2l6 13.4c.1.3 0 .5-.3.5h-.8c-.2 0-.3-.1-.3-.2l-1.5-3.3h-7.1l-1.5 3.3c0 .1-.2.2-.3.2h-.8c-.3 0-.4-.3-.3-.5zm9.5-4.3c-1-2.2-1.9-4.4-2.9-6.5h-.2l-2.9 6.5h6zM103.5 8.4h-3.5c-.2 0-.4-.2-.4-.4v-.6c0-.2.2-.4.4-.4h8.4c.2 0 .4.2.4.4v.6c0 .2-.2.4-.4.4h-3.4v12.2c0 .2-.2.4-.4.4h-.8c-.2 0-.4-.2-.4-.4v-12.2zM108.4 20.5l6.1-13.4c.1-.1.2-.2.3-.2h.2c.2 0 .3.1.3.2l6 13.4c.1.3 0 .5-.3.5h-.8c-.2 0-.3-.1-.3-.2l-1.5-3.3h-7.1l-1.5 3.3c0 .1-.2.2-.3.2h-.8c-.3 0-.4-.3-.3-.5zm9.5-4.3c-1-2.2-1.9-4.4-2.9-6.5h-.2l-2.9 6.5h6z"/></g><circle fill="#27AAE1" cx="13.1" cy="12.9" r="12.4"/><defs><circle id="a" cx="13.1" cy="12.9" r="12.4"/></defs><clipPath id="b"><use xlink:href="#a" overflow="visible"/></clipPath><path fill="#fff" d="M8.8 6c0-.2.2-.4.4-.4h5c2.7 0 4.9 2.2 4.9 4.8 0 2.7-2.2 4.9-4.9 4.9h-3.2v5.2c0 .2-.2.4-.4.4h-1.4c-.2 0-.4-.2-.4-.4v-14.5zm5.3 7.2c1.5 0 2.8-1.2 2.8-2.8 0-1.5-1.3-2.6-2.8-2.6h-3v5.4h3z" clip-path="url(#b)"/><path fill="#27AAE1" d="M30.2 25.7c-.1 0-.2-.1-.2-.2v-25c0-.1.1-.2.2-.2s.2.1.2.2v24.9c0 .2 0 .3-.2.3z"/></svg>