<svg width="200" height="69.4444444" viewBox="0 0 266.315 92.02" xmlns="http://www.w3.org/2000/svg" class="schiphol-logo__img">
            <title>Schiphol Amsterdam Airport logo</title>
            <g class="header__logo--img-text-amsterdam-airport">
                <path d="M83.438 76.31h-.04L81.33 82.2h4.17l-2.062-5.89zm-1.574-2.865h3.232l5.606 14.277H87.53l-1.23-3.27h-5.787l-1.25 3.27H76.3l5.57-14.277h-.006zm10.396 3.742h2.56v1.475h.04c.857-1.29 2.105-1.72 3.13-1.72 1.47 0 2.514.554 3.108 1.862.635-1.27 2.006-1.86 3.297-1.86 2.597 0 3.334 1.778 3.334 4.13v6.648h-2.74v-6.28c0-.982 0-2.372-1.576-2.372-1.82 0-2.046 2.17-2.046 3.54v5.116h-2.744v-6.28c0-.982 0-2.372-1.572-2.372-1.82 0-2.046 2.17-2.046 3.54v5.113h-2.742V77.19l-.004-.003zm24.71 2.21c-.84-.286-1.452-.448-2.456-.448-.736 0-1.615.262-1.615 1.165 0 1.676 4.77.613 4.77 4.418 0 2.455-2.19 3.437-4.42 3.437-1.043 0-2.107-.18-3.11-.45l.165-2.25c.857.43 1.76.698 2.7.698.697 0 1.8-.265 1.8-1.29 0-2.065-4.768-.653-4.768-4.458 0-2.27 1.987-3.274 4.133-3.274 1.29 0 2.127.203 2.99.39l-.185 2.063-.002-.004h-.003zm4.136-.204h-2.027v-2.006h2.03v-2.105l2.74-.88v2.985h2.436v2.006h-2.436v4.91c0 .9.246 1.738 1.29 1.738.49 0 .96-.1 1.247-.284l.082 2.166c-.574.166-1.21.248-2.027.248-2.148 0-3.334-1.33-3.334-3.412v-5.36l-.003-.003v-.002zm14.078 2.23c-.084-1.33-.697-2.475-2.232-2.475-1.534 0-2.31 1.06-2.434 2.47h4.666v.006zm1.84 5.707c-1.002.555-2.15.84-3.62.84-3.48 0-5.503-2.002-5.503-5.46 0-3.046 1.618-5.563 4.89-5.563 3.91 0 5.017 2.68 5.017 6.363h-7.285c.126 1.696 1.31 2.657 3.01 2.657 1.33 0 2.473-.492 3.497-1.064v2.23l-.006-.003zm3.204-9.94h2.435v2.395h.04c.122-.983 1.247-2.64 2.883-2.64.268 0 .553 0 .84.083v2.762c-.246-.144-.736-.226-1.228-.226-2.23 0-2.23 2.78-2.23 4.297v3.866h-2.74V77.19zm12.296 8.654c1.822 0 2.414-1.922 2.414-3.416 0-1.473-.695-3.355-2.455-3.355-1.78 0-2.272 1.945-2.272 3.357 0 1.452.513 3.415 2.314 3.414zm2.518.695h-.04c-.822 1.022-1.947 1.432-3.234 1.432-3.234 0-4.42-2.66-4.42-5.543 0-2.906 1.186-5.484 4.42-5.484 1.37 0 2.33.47 3.15 1.472h.042V72.38h2.74v15.344h-2.658v-1.188.003zm9.232-.574c.838 0 1.492-.367 1.924-.94.45-.593.572-1.35.572-2.17h-1.185c-1.23 0-3.05.206-3.05 1.82 0 .9.76 1.29 1.74 1.29zm-3.21-8.225c1.064-.49 2.493-.794 3.66-.794 3.212 0 4.544 1.328 4.544 4.44v1.35c0 1.06.022 1.86.04 2.637.023.8.062 1.537.124 2.354h-2.418c-.1-.55-.1-1.246-.12-1.572h-.042c-.635 1.167-2.006 1.82-3.254 1.82-1.86 0-3.683-1.124-3.683-3.13 0-1.576.76-2.496 1.802-3.008 1.04-.512 2.39-.613 3.535-.613h1.514c0-1.697-.756-2.27-2.373-2.27-1.17 0-2.335.448-3.253 1.145l-.082-2.355.003-.003h.004zm11.128-.55h2.56v1.475h.038c.86-1.29 2.11-1.72 3.13-1.72 1.473 0 2.518.554 3.11 1.862.635-1.27 2.006-1.86 3.295-1.86 2.597 0 3.334 1.778 3.334 4.13v6.648h-2.74v-6.28c0-.982 0-2.372-1.574-2.372-1.82 0-2.045 2.17-2.045 3.54v5.114h-2.74v-6.28c0-.982 0-2.372-1.577-2.372-1.82 0-2.043 2.17-2.043 3.54v5.113h-2.742v-10.54h-.003l-.003.003z" fill="#DB443C"></path>
                <path d="M202.848 76.31h-.04l-2.07 5.89h4.174l-2.064-5.89zm-1.576-2.865h3.232l5.606 14.277h-3.17l-1.23-3.27h-5.788l-1.248 3.27h-2.967l5.56-14.277h.005zm10.566 3.742h2.74v10.535h-2.74V77.187zm0-4.54h2.74v2.618h-2.74v-2.62.002zm6 4.54h2.433v2.395h.04c.125-.983 1.25-2.64 2.886-2.64.266 0 .553 0 .838.083v2.762c-.244-.143-.736-.225-1.226-.225-2.23 0-2.23 2.78-2.23 4.297v3.862h-2.74V77.187zm10.725 5.238c0 1.494.592 3.416 2.414 3.416 1.795 0 2.31-1.962 2.31-3.415 0-1.412-.496-3.355-2.275-3.355-1.76 0-2.453 1.886-2.453 3.36v-.003l.003-.002zm-2.762-5.238h2.618v1.494h.04c.617-1.023 1.658-1.737 3.275-1.737 3.232 0 4.418 2.578 4.418 5.482 0 2.885-1.185 5.545-4.48 5.545-1.166 0-2.127-.285-3.087-1.45h-.04v5.5H225.8V77.187zm17.64 8.654c2.11 0 2.66-1.88 2.66-3.64 0-1.615-.855-3.13-2.66-3.13-1.78 0-2.635 1.556-2.635 3.13 0 1.74.55 3.64 2.637 3.64zm0-8.897c3.13 0 5.525 2.107 5.525 5.584 0 3.03-2.023 5.443-5.523 5.443-3.477 0-5.502-2.41-5.502-5.44 0-3.476 2.395-5.583 5.502-5.583v-.004zm7.708.245h2.433v2.393h.04c.125-.982 1.25-2.64 2.886-2.64.266 0 .553 0 .84.084v2.762c-.246-.144-.738-.226-1.228-.226-2.23 0-2.23 2.78-2.23 4.297v3.863h-2.74V77.188zm9.37 2.004h-2.025v-2.006h2.025V75.08l2.74-.88v2.985h2.436v2.005h-2.436v4.91c0 .9.246 1.738 1.29 1.738.49 0 .96-.1 1.247-.285l.082 2.166c-.576.166-1.21.25-2.027.25-2.148 0-3.336-1.33-3.336-3.416v-5.36l.002-.003.002.002z" fill="#8B8B8B"></path>
            </g>
            <g class="header__logo--img-text-schiphol">
                <path d="M55.226 56.927h-.04c-5.898 0-10.754-1.996-14.043-5.77-3.068-3.513-4.69-8.42-4.69-14.197-.003-.04-.003-.08 0-.12.018-5.502 1.658-10.27 4.742-13.783 3.313-3.798 8.047-5.808 13.688-5.808 3.81 0 7.21.5 10.14 1.484l.435.146-.05.455-1.088 9.443-.087.75-.695-.29c-.238-.1-.47-.2-.697-.298-1.762-.76-3.284-1.41-5.983-1.41h-.12c-4.664.03-7.497 3.544-7.58 9.396.06 3.62 1.15 9.72 7.76 9.72 2.21 0 4.214-.757 6.154-1.49.53-.204 1.064-.4 1.6-.585l.71-.24.04.75.525 9.797.02.403-.37.15c-2.227.925-6.202 1.5-10.373 1.5l.004-.003zm-40.784-.002h-.05c-5.154 0-10.352-1.36-13.146-2.094l-.19-.05-.47-.12.05-.485L1.778 43.23l.088-.84.746.4c4.5 2.42 7.88 3.455 11.292 3.45 1.4 0 3.163-.462 4.732-1.243 1.22-.61 1.993-1.853 2.002-3.217.002-1.43-.877-2.69-2.41-3.457-1.817-.91-4.245-1.905-6.817-2.96l-.076-.033C6.044 33.19-.028 29.62.002 20.94c-.003-.03-.003-.06 0-.09-.02-6.735 3.137-10.463 5.79-12.398C9.767 5.516 14.69 4.897 18.12 4.896c4.3 0 9.016.776 12.62 2.078l.422.153-.05.445-1.148 10.013-.084.732-.686-.268c-4.387-1.718-7.55-2.48-10.26-2.48-1.585.01-3.053.4-4.024 1.065-1.227.86-1.783 2.06-1.8 3.886.002 1.193.685 2.025 2.433 3.004 1.2.665 2.803 1.28 4.5 1.933.776.3 1.582.61 2.397.94 7.522 3.027 11.336 7.94 11.336 14.593 0 4.994-2.344 9.853-5.973 12.383-3.34 2.347-7.836 3.544-13.362 3.554v-.004l.002.002zm215.986-29.4c-5.156.004-7.043 4.7-7.092 8.72 0 2.126.268 5.132 1.543 7.34 1.23 2.09 2.937 3.038 5.544 3.065 2.635-.025 4.365-.964 5.598-3.043 1.277-2.19 1.554-5.212 1.56-7.364-.058-4.198-1.968-8.698-7.152-8.716l-.002-.002zm.006 29.4h-.037c-5.93 0-10.96-1.987-14.555-5.75-3.37-3.517-5.225-8.435-5.225-13.845.01-5.99 1.997-11.06 5.74-14.71 3.575-3.466 8.575-5.375 14.08-5.375 5.536 0 10.552 1.91 14.12 5.377 3.76 3.65 5.74 8.73 5.74 14.69-.006 5.437-1.87 10.36-5.254 13.87-3.6 3.76-8.652 5.747-14.607 5.747h-.005l.004-.005zm-81.55-29.4c-2.08.02-3.62.953-4.85 2.94-1.03 1.705-1.645 4.143-1.64 6.514v.1c.007 2.522.56 4.927 1.514 6.602 1.18 2.026 2.676 2.94 4.838 2.965 2.096-.027 3.476-.92 4.6-2.987.885-1.66 1.394-4.07 1.397-6.613l-.003-.077c.01-2.453-.495-4.88-1.342-6.51-1.1-2.03-2.45-2.907-4.512-2.93l-.003-.003v-.002zm-10.532 42.488h-8.136v-51.97h11.932v.57l-.002 1.916c2.394-1.985 5.495-3.026 9.053-3.026h.113c5.36 0 9.635 2.09 12.363 6.045 2.307 3.33 3.53 7.97 3.533 13.42-.007 5.475-1.24 10.148-3.568 13.526-2.774 4.04-7.11 6.18-12.546 6.18h-.228c-3.504 0-6.315-.932-8.745-2.915v12.48c0 2.08-1.69 3.77-3.77 3.77v.003zm-18.36-13.927h-8.51V18.044h12.28v34.273c0 2.08-1.69 3.77-3.77 3.77zm3.77-40.682h-12.28V8.89c0-1.882 1.367-3.286 3.654-3.757L123.08 3.5l.683-.14v12.045zm138.785 40.68h-8.51V5.534c0-1.88 1.365-3.286 3.654-3.756L265.636.14l.68-.14v52.31c0 2.08-1.69 3.77-3.77 3.77v.002l.002.002zm-161.1.002h-8.513v-20.42c.007-2.005-.067-4.26-.66-5.804-.65-1.543-1.36-2.295-3.614-2.35-2.305.018-3.8.977-4.98 3.204-.764 1.5-1.256 3.644-1.346 5.874v19.46l-.594.04H70.058V5.855c0-1.883 1.368-3.288 3.658-3.76L81.66.463l.684-.14v20.083c2.588-2.06 5.887-3.184 9.424-3.184h.076c4.38 0 7.916 1.56 10.222 4.51 2.086 2.636 3.15 6.26 3.155 10.768v19.82c0 2.08-1.69 3.77-3.77 3.77v-.003h-.003zm101.86.003h-8.51V35.664c.006-2.004-.07-4.26-.664-5.802-.65-1.543-1.36-2.295-3.61-2.352-2.308.02-3.802.98-4.984 3.208-.76 1.5-1.25 3.64-1.34 5.872v18.89l-.004.567-.593.04h-11.685V5.86c0-1.885 1.368-3.29 3.66-3.76L183.52.464l.68-.14v20.082c2.59-2.063 5.888-3.186 9.425-3.186h.073c4.382 0 7.92 1.56 10.226 4.513 2.088 2.636 3.15 6.26 3.155 10.767v19.82c0 2.08-1.69 3.77-3.77 3.77h.002-.005z" fill="#FFF"></path>
                <path d="M56.922 47.21c-5.564 0-8.225-4.14-8.327-10.293.088-6.2 3.185-9.922 8.14-9.957 3.252-.02 4.9.865 7.023 1.75l1.085-9.44c-2.827-.95-6.203-1.454-9.927-1.454-5.703-.008-10.25 2.125-13.294 5.615-3.046 3.47-4.59 8.225-4.603 13.44-.003.057.004.06 0 .07 0 5.477 1.49 10.337 4.554 13.848 3.065 3.518 7.692 5.576 13.617 5.576h.04c4.063 0 7.97-.547 10.157-1.454l-.522-9.8c-2.428.833-4.995 2.104-7.94 2.104v-.003h-.003zM22.228 26.92c-2.634-1.072-5.17-1.912-6.96-2.902-1.817-1.015-2.72-1.99-2.725-3.455l.003-.045c.02-2.277.857-3.515 2.046-4.35 1.2-.822 2.852-1.154 4.343-1.166 3.142 0 6.567.993 10.468 2.516L30.55 7.505C26.94 6.2 22.27 5.46 18.125 5.46c-4.314.003-8.656.983-11.996 3.45C2.785 11.352.558 15.347.574 20.88c-.002.037 0 .052 0 .058v.005c-.03 8.352 5.772 11.758 10.98 13.863 2.626 1.078 5.08 2.084 6.934 3.01 3.9 1.947 3.222 6.295.407 7.692-1.49.74-3.375 1.31-4.985 1.306-3.496.002-7.01-1.072-11.56-3.52L1.204 54.238c2.63.69 7.99 2.125 13.19 2.125h.05c4.905-.01 9.542-.994 13.04-3.453 3.5-2.44 5.73-7.1 5.73-11.917 0-8.026-5.762-11.967-10.983-14.07h-.002zm214.28 16.972c-1.19 2.01-2.962 3.293-6.093 3.324-3.088-.035-4.84-1.33-6.025-3.35-1.172-2.03-1.62-4.85-1.62-7.63.06-4.89 2.532-9.28 7.66-9.28 5.218.015 7.647 4.243 7.718 9.282-.006 2.812-.46 5.632-1.637 7.65v.002l-.002.002zm7.653-20.866c-3.477-3.38-8.32-5.22-13.725-5.22-5.377 0-10.203 1.84-13.682 5.216-3.474 3.38-5.558 8.29-5.564 14.256l-.003.046c0 5.236 1.758 10 5.068 13.455 3.315 3.473 8.178 5.58 14.162 5.575h.02c6.006 0 10.877-2.107 14.2-5.573 3.33-3.457 5.09-8.23 5.093-13.47v-.01c.005-5.98-2.08-10.895-5.562-14.28h-.002l-.002.002-.003.004zM141.55 52.493c2.904 2.82 6.04 3.64 9.477 3.61 5.652.02 9.675-2.34 12.14-5.932 2.473-3.585 3.463-8.32 3.47-13.19l-.003-.01c-.006-4.896-.99-9.577-3.438-13.1-2.436-3.534-6.403-5.816-11.95-5.8-4.24-.013-7.447 1.462-9.676 3.752l.004-3.213h-10.796v50.834h7.568c.85 0 1.665-.337 2.266-.938.6-.6.938-1.415.938-2.265V52.494zm12.29-8.564c-1.09 2-2.55 3.25-5.104 3.283-2.62-.032-4.17-1.282-5.323-3.252-1.103-1.937-1.584-4.57-1.592-6.872l.003-.01v-.097c-.003-2.262.557-4.88 1.727-6.813 1.197-1.94 2.828-3.19 5.332-3.21 2.516.03 3.947 1.27 5.014 3.233 1.007 1.938 1.413 4.567 1.41 6.758v.07c0 2.276-.415 4.94-1.464 6.91zm-33.85 11.587c.85 0 1.665-.338 2.266-.94.6-.6.937-1.415.937-2.264V18.61h-11.145v36.91h7.943v-.003zm-4.74-49.83c-1.793.37-3.203 1.433-3.203 3.202v5.944h11.144V4.054l-7.942 1.633h.003zM257.805 2.33c-1.793.37-3.203 1.435-3.203 3.204V55.52h7.944c.85 0 1.664-.338 2.265-.94.602-.6.94-1.414.94-2.264V.7l-7.944 1.633-.002-.003zm-164.3 33.334V55.52h7.943c1.767 0 3.2-1.436 3.2-3.205V32.5c-.002-4.083-.91-7.74-3.032-10.417-2.12-2.712-5.464-4.306-9.833-4.293-3.986 0-7.49 1.45-10.013 3.87V1.02l-7.945 1.63c-1.792.37-3.2 1.434-3.2 3.203V55.52H81.74v-.038h.026l.003-18.914c.077-1.94.475-4.287 1.41-6.12 1.1-2.08 2.63-3.484 5.496-3.508 2.545.065 3.41 1.02 4.127 2.716.62 1.616.707 3.932.7 6.006v.002zm101.863 0V55.52h7.94c.85 0 1.666-.338 2.267-.94.6-.6.94-1.415.94-2.265V32.5c-.006-4.083-.913-7.74-3.036-10.417-2.12-2.712-5.46-4.306-9.832-4.293-3.987 0-7.49 1.45-10.01 3.87V1.02l-7.946 1.63c-1.795.37-3.203 1.436-3.203 3.205V55.52H183.6v-.038h.026V36.57c.08-1.94.476-4.286 1.41-6.12 1.103-2.08 2.63-3.483 5.496-3.507 2.545.065 3.414 1.02 4.127 2.716.622 1.616.706 3.932.702 6.006h.002l.003-.002z" fill="#00368A"></path>
            </g>
        </svg>