<svg xmlns="http://www.w3.org/2000/svg" viewBox="0 0 190 38"><defs><style>.sf-logo{fill:#fff;}</style></defs><title id="sf-logo">SuperFriendly</title><path d="M183.35 18.29l-1-3.56h1.29v-2.66h-6.68v2.65h1.14l2.47 8h1zm-11.26 4.4h5.75v-2.69h-1.56v-11.53h-6.11v2.65h1.92zm-.66-2.69h-1.92v-11.53h-6.18v2.65h2v11.57h6.12zm-9.43 2.87a4.33 4.33 0 0 0 2.69-.91v-1.96h-.69c-.85 0-1.3-.32-1.3-1.27v-2.73c0-.94.45-1.27 1.3-1.27h.7v-1.94a4.31 4.31 0 0 0-2.69-.91c-2.33 0-3.62 1.14-3.62 4v3c-.03 2.86 1.25 3.99 3.61 3.99zm-9.17-.19h5.07v-2.68h-.9v-4.48c0-2.6-1.13-3.64-3.5-3.64a4.16 4.16 0 0 0-2.6.85v2h.61c.85 0 1.29.33 1.29 1.27zm-.65 0v-2.68h-1.9v-8h-5.36v2.65h1.17v5.35h-1.17v2.65zm-13.84-4.24h5.66v-2.54c0-2.88-1.71-4-5-4h-.68v2.65h.68c1 0 1.36.33 1.36 1.61v.23h-2.07zm5.66 3.81v-2.75a17.8 17.8 0 0 1-4.76.72c-1.22 0-1.61-.42-1.61-1.61v-6.72c-2.7 0-4.29 1.65-4.29 4v3c0 2.82 1.61 4 5.77 4a19.91 19.91 0 0 0 4.89-.64zm-16.58-11.12h4.2v-2.66h-4.2zm0 .95v8h-1.17v2.65h6.51v-2.73h-1.15v-8zm-3.88 3.41h3.23v-3.42h-.89a3.69 3.69 0 0 0-2.35.83zm-6 7.2h6.92v-2.69h-1.56v-8h-4.2v8h-1.15zm-6-11.56h3.1v2.61h3.36v-5.27h-6.48zm0 6.27h4.46v-3h-4.46zm-.65-8.92h-5.79v2.65h1.19v8.87h-1.38v2.65h8.32v-2.65h-2.33zm-8.49 7h3.23v-3.41h-.89a3.69 3.69 0 0 0-2.35.83zm-6 7.2h6.92v-2.68h-1.57v-8h-5.31v2.65h1.15v5.35h-1.15zm-6.58-4.24h5.73v-2.54c0-2.88-1.71-4-5-4h-.68v2.65h.71c1 0 1.36.33 1.36 1.61v.23h-2.08zm5.73 3.81v-2.75a17.8 17.8 0 0 1-4.76.72c-1.22 0-1.61-.42-1.61-1.61v-6.72c-2.7 0-4.29 1.65-4.29 4v3c0 2.82 1.61 4 5.77 4a19.91 19.91 0 0 0 4.92-.64zm85.48 1.38h-101.72v2.65h101.75c2.47 0 3.65-.8 4.37-2.6l3.59-9h1v-2.61h-5.74v2.65h1.25l-3.23 7.88c-.23.56-.5 1.03-1.24 1.03zm-110 0h-25.21v2.65h25.23zm-19.24-3.63a10 10 0 0 1-2.47-.3v-2.13h-3.5v4.59a22.83 22.83 0 0 0 6 .72zm.65-9a8.76 8.76 0 0 1 2 .23v2.27h3.48v-4.44a20.5 20.5 0 0 0-5.49-.78zm12.2 1v2.65h1.9v8h5.36v-2.65h-1.17v-8zm.64 8c-.85 0-1.28-.3-1.28-1.24v-6.69h-5.07v2.65h.86v4.51c0 2.6 1.13 3.64 3.5 3.64a4.16 4.16 0 0 0 2.6-.85v-2.02zm7.59-5.31h-1.17v-2.62h5.36v11.56h1.59v2.65h-7v-2.65h1.17zm7.54 8.15c2.33 0 3.61-1.14 3.61-4v-3c0-2.88-1.28-4-3.61-4a4.32 4.32 0 0 0-2.69.91v1.94h.7c.85 0 1.3.33 1.3 1.27v2.77c0 .94-.44 1.27-1.3 1.27h-.7v2a4.34 4.34 0 0 0 2.69.87zm-28 0c4.2 0 6-1.5 6-3.77v-1.29c0-2.06-1-3-3.5-3.66l-3.94-1c-.68-.17-.91-.51-.91-1s.42-1 1.68-1v-2.83c-4.25 0-5.93 1.46-5.93 4v1.06c0 2.07 1 3 3.5 3.66l3.87 1c.76.19.89.47.89 1.06s-.38 1-1.68 1zM30.04 0h-30.04v27.87l15.05 10.13 14.67-11.01.32-26.99z"></path><path class="sf-logo" d="M20.66 8.17h-9.52c-4.14-.01-4.14 4.29-4.14 4.29 0 3.29 2.18 4.06 3 4.24h-3.1v3.14a2.54 2.54 0 0 0 2.64 2.77h.74v-9.44c0-2.08 2.67-2 2.67-2h7v2.83h-6.62v3h6.57v.54c0 2.08-2.67 2-2.67 2h-3.9v3h5.72c4.09 0 4.09-4.31 4.09-4.31 0-3.58-2.34-4.15-2.92-4.24h3.08v-3.05a2.54 2.54 0 0 0-2.64-2.77z"></path></svg>