<?xml version="1.0" encoding="UTF-8"?>
<svg width="141px" height="28px" viewBox="0 0 141 28" version="1.1" xmlns="http://www.w3.org/2000/svg" xmlns:xlink="http://www.w3.org/1999/xlink">
    <!-- Generator: Sketch 48.1 (47250) - http://www.bohemiancoding.com/sketch -->
    <title>Logo_TELUS</title>
    <desc>Created with Sketch.</desc>
    <defs></defs>
    <g id="Header-Personal_Desktop" stroke="none" stroke-width="1" fill="none" fill-rule="evenodd" transform="translate(-57.000000, -76.000000)">
        <g id="Header-Personal">
            <g id="Logo_TELUS" transform="translate(57.000000, 76.000000)">
                <g id="Logo">
                    <path d="M83.7203496,8.06060606 L77.6352714,8.06060606 L77.6352714,10.8173333 L82.6971122,10.8173333 L82.6971122,13.6801212 L77.6352714,13.6801212 L77.6352714,16.9484848 L83.7203496,16.9484848 L83.7203496,19.9393939 L73.4896739,19.9393939 L73.4896739,5.19187879 L83.7203496,5.19187879 L83.7203496,8.06060606 Z M101.770087,17.0290909 L101.770087,19.9393939 L91.1819155,19.9393939 L91.1819155,5.19187879 L95.3759151,5.19187879 L95.3759151,17.0290909 L101.770087,17.0290909 Z M135.54881,10.8130909 C138.809583,11.5478788 140.260797,12.8621818 140.260797,15.1938182 C140.260797,16.2968485 139.92368,17.4567273 138.889404,18.4163636 C137.399978,19.8138182 135.378129,20.245697 132.604773,20.245697 C130.608399,20.245697 128.670616,19.7985455 126.765102,18.9882424 L127.733993,16.0397576 C129.3941,16.7329697 131.015995,17.2946667 132.764415,17.2946667 C134.64955,17.2946667 135.648161,16.8186667 135.609949,15.7088485 C135.56834,14.505697 133.512525,14.1459394 131.483882,13.7284848 C129.378816,13.2915152 127.088632,12.2385455 127.203268,9.42751515 C127.311112,6.34327273 129.928222,4.76169697 133.833507,4.76169697 C135.820541,4.76169697 137.885697,5.12569697 139.491458,6.00387879 L138.350187,8.71818182 C136.78094,7.91127273 135.243961,7.60836364 133.937105,7.60836364 C133.125308,7.60836364 131.727591,7.93163636 131.727591,8.97866667 C131.727591,10.1037576 132.717711,10.1741818 135.54881,10.8130909 Z M67.5404613,8.1030303 L63.1859706,8.1030303 L63.1859706,19.9393939 L59.0165966,19.9393939 L59.0165966,8.1030303 L54.6672008,8.1030303 L54.6672008,5.19187879 L67.5404613,5.19187879 L67.5404613,8.1030303 Z M116.077579,5.19187879 L120.4015,5.19187879 L120.4015,15.0292121 C120.4015,16.3740606 120.380271,16.6913939 120.09835,17.3591515 C119.532809,18.7328485 117.587384,20.2049697 113.812021,20.2049697 L113.749183,20.2049697 L113.660021,20.2049697 C110.839962,20.2049697 108.793487,19.5185455 107.742227,18.2025455 C107.108754,17.3990303 106.919392,16.7626667 106.919392,15.3575758 L106.919392,5.19187879 L111.267938,5.19187879 L111.267938,14.8052121 C111.267938,15.5926061 111.352854,16.0847273 111.52863,16.3613333 C111.878484,16.8950303 112.626594,17.1953939 113.649831,17.2132121 C115.031414,17.1953939 115.900104,16.6769697 116.031724,15.7835152 C116.077579,15.5001212 116.077579,15.2956364 116.077579,14.561697 L116.077579,5.19187879 Z" id="Combined-Shape" fill="#3D2557"></path>
                    <g id="Group">
                        <path d="M56.6330055,1.15393939 L32.240045,6.00642424 L32.240045,7.70424242 L32.319866,7.68727273 C48.4318214,3.77321212 56.6330055,1.41951515 56.6992399,1.40169697 C56.7901,1.37793939 56.8223681,1.30751515 56.8096307,1.24812121 C56.7968933,1.18448485 56.7306588,1.13527273 56.6330055,1.15393939" id="Fill-6" fill="#3D2557"></path>
                        <path d="M36.1614643,2.51151515 C36.5384912,2.26884848 36.6471836,2.41818182 36.5359437,2.69309091 C36.356771,3.13006061 35.5313878,5.76715152 29.3902651,10.8046061 C27.7879008,12.1172121 26.6483286,12.8545455 24.3411618,14.2189091 C28.1190731,8.92521212 33.6343651,4.14993939 36.1614643,2.51151515 M36.8000324,0.689818182 C35.6146055,0.756848485 33.4195277,2.51151515 32.2154193,3.55430303 C27.4151197,7.70424242 23.8478,11.5173333 21.2519189,15.5111515 C15.843621,18.4044848 8.94844454,21.3792727 2.10082101,23.7058182 L1.93523487,23.7635152 L0.618188235,27.3059394 L1.3705437,27.0174545 C5.72673277,25.3578182 12.9955395,22.2447273 19.5858676,18.7803636 C19.2147849,19.7688485 19.0271206,20.6784242 19.0271206,21.5090909 C19.0271206,22.1267879 19.1307181,22.7003636 19.3387622,23.2238788 C19.7540013,24.2649697 20.5691945,25.0549091 21.7019735,25.5071515 C23.3884046,26.1774545 25.6896273,26.1918788 28.3143798,25.3985455 C35.0227412,23.3647273 42.9768197,17.1300606 44.7091055,15.8904242 L44.7753399,15.8429091 C44.8424235,15.7945455 44.8483676,15.7181818 44.8186471,15.6706667 C44.781284,15.6121212 44.7023122,15.5993939 44.6352286,15.6367273 L44.5511618,15.6901818 C42.6915021,16.8008485 33.6598399,22.1607273 27.78875,23.7346667 C24.7988588,24.5364848 22.5205634,24.0978182 21.6595155,22.8955152 C21.3614605,22.4873939 21.2179525,21.9664242 21.2179525,21.3606061 C21.2179525,20.1778182 21.7741521,18.6734545 22.8474899,17.0002424 C23.8350626,16.437697 24.7564008,15.8887273 25.5877282,15.3669091 C31.3153101,12.150303 37.9141298,5.89951515 38.1952017,2.08133333 C38.1969,2.05587879 38.1969,2.02533333 38.1969,1.99648485 C38.1969,1.66727273 38.0542412,1.3270303 37.8045882,1.07587879 C37.5362538,0.803515152 37.1821542,0.664363636 36.8000324,0.689818182" id="Fill-7" fill="#66CC00"></path>
                        <polyline id="Fill-8" fill="#3D2557" points="32.1619223 6.02339394 6.49776975 11.534303 5.50595126 14.2019394 32.240045 7.70424242 32.2825029 7.69575758 32.2825029 5.99709091 32.1619223 6.02339394"></polyline>
                    </g>
                </g>
            </g>
        </g>
    </g>
</svg>